<?xml version="1.0" encoding="UTF-8"?>
<svg width="162px" height="56px" viewBox="0 0 162 56" version="1.1" xmlns="http://www.w3.org/2000/svg" xmlns:xlink="http://www.w3.org/1999/xlink">
    <title>app</title>
    <defs>
        <filter x="-8.9%" y="-29.3%" width="117.8%" height="158.7%" filterUnits="objectBoundingBox" id="filter-1">
            <feOffset dx="2" dy="2" in="SourceAlpha" result="shadowOffsetOuter1"></feOffset>
            <feGaussianBlur stdDeviation="2.5" in="shadowOffsetOuter1" result="shadowBlurOuter1"></feGaussianBlur>
            <feColorMatrix values="0 0 0 0 0   0 0 0 0 0   0 0 0 0 0  0 0 0 0.1 0" type="matrix" in="shadowBlurOuter1" result="shadowMatrixOuter1"></feColorMatrix>
            <feMerge>
                <feMergeNode in="shadowMatrixOuter1"></feMergeNode>
                <feMergeNode in="SourceGraphic"></feMergeNode>
            </feMerge>
        </filter>
        <rect id="path-2" x="0" y="0" width="152" height="46" rx="4.104"></rect>
    </defs>
    <g id="app" stroke="none" stroke-width="1" fill="none" fill-rule="evenodd">
        <g id="Appstore" filter="url(#filter-1)" transform="translate(3.000000, 3.000000)">
            <g id="backfround-copy" stroke-linejoin="square">
                <rect stroke="#A6A6A6" stroke-width="1.026" fill="#000000" fill-rule="evenodd" x="0.513" y="0.513" width="150.974" height="44.974" rx="4.104"></rect>
                <rect stroke="#8F8F8F" stroke-width="0.513" x="0.2565" y="0.2565" width="151.487" height="45.487" rx="4.104"></rect>
            </g>
            <path d="M57.1916854,34.5591647 L59.695983,34.5591647 L54.213886,19.1105011 L51.6780216,19.1105011 L46.1959245,34.5591647 L48.6160441,34.5591647 L50.0155046,30.4587918 L55.8027472,30.4587918 L57.1916854,34.5591647 Z M52.8249478,21.915456 L53.0038262,21.915456 L55.2029784,28.4460761 L50.6152734,28.4460761 L52.8249478,21.915456 Z M66.33617,22.7076951 C64.7788756,22.7076951 63.4320264,23.4999343 62.7375573,24.8274702 L62.5692012,24.8274702 L62.5692012,22.900402 L60.3910935,22.900402 L60.3910935,38.3383596 L62.6533793,38.3383596 L62.6533793,32.7926855 L62.8322577,32.7926855 C63.4320264,34.023868 64.7262643,34.7518716 66.3572145,34.7518716 C69.2508358,34.7518716 71.0922311,32.4286837 71.0922311,28.7244304 C71.0922311,25.020177 69.2508358,22.7076951 66.33617,22.7076951 L66.33617,22.7076951 Z M65.6943122,32.6856262 C63.8003055,32.6856262 62.6112902,31.1653835 62.6112902,28.7351363 C62.6112902,26.2941832 63.8003055,24.7739405 65.7048344,24.7739405 C67.6198856,24.7739405 68.7668118,26.2620654 68.7668118,28.7244304 C68.7668118,31.1975013 67.6198856,32.6856262 65.6943122,32.6856262 L65.6943122,32.6856262 Z M78.0691303,22.7076951 C76.511836,22.7076951 75.1649868,23.4999343 74.4705177,24.8274702 L74.3021616,24.8274702 L74.3021616,22.900402 L72.1240539,22.900402 L72.1240539,38.3383596 L74.3863396,38.3383596 L74.3863396,32.7926855 L74.565218,32.7926855 C75.1649868,34.023868 76.4592247,34.7518716 78.0901749,34.7518716 C80.9837961,34.7518716 82.8251915,32.4286837 82.8251915,28.7244304 C82.8251915,25.020177 80.9837961,22.7076951 78.0691303,22.7076951 L78.0691303,22.7076951 Z M77.4272725,32.6856262 C75.5332659,32.6856262 74.3442506,31.1653835 74.3442506,28.7351363 C74.3442506,26.2941832 75.5332659,24.7739405 77.4377948,24.7739405 C79.352846,24.7739405 80.4997722,26.2620654 80.4997722,28.7244304 C80.4997722,31.1975013 79.352846,32.6856262 77.4272725,32.6856262 L77.4272725,32.6856262 Z M87.6141022,30.4052621 C87.7824584,33.1673932 90.0447441,34.9338724 93.411867,34.9338724 C97.0104796,34.9338724 99.2622431,33.0817458 99.2622431,30.1269078 C99.2622431,27.80372 97.9785275,26.5190078 94.8639388,25.7802984 L93.1908996,25.3627669 C91.2127148,24.8917058 90.4130231,24.2600556 90.4130231,23.1573444 C90.4130231,21.7655729 91.6546497,20.8555684 93.5170896,20.8555684 C95.2848291,20.8555684 96.5054112,21.744161 96.7263786,23.1680503 L99.0202311,23.1680503 C98.8834418,20.5665082 96.6316783,18.7357934 93.5486564,18.7357934 C90.2341447,18.7357934 88.0244703,20.5665082 88.0244703,23.3179334 C88.0244703,25.5875915 89.2766192,26.9365393 92.0229288,27.5896013 L93.980069,28.0713684 C95.9898205,28.5531354 96.8736903,29.2597271 96.8736903,30.4373799 C96.8736903,31.8077395 95.4847521,32.8033915 93.5907454,32.8033915 C91.5599494,32.8033915 90.1499667,31.8719751 89.9500437,30.4052621 L87.6141022,30.4052621 Z M101.209502,20.0740352 L101.209502,22.9539316 L99.3260181,22.9539316 L99.3260181,24.8917058 L101.209502,24.8917058 L101.209502,31.4758556 C101.209502,33.7241018 102.209117,34.6234003 104.723937,34.6234003 C105.165872,34.6234003 105.57624,34.5698707 105.933997,34.5056351 L105.933997,32.5892728 C105.618329,32.6213906 105.439451,32.6428024 105.092216,32.6428024 C103.966334,32.6428024 103.471788,32.1075057 103.471788,30.8870292 L103.471788,24.8917058 L106.039219,24.8917058 L106.039219,22.9539316 L103.471788,22.9539316 L103.471788,20.0740352 L101.209502,20.0740352 Z M111.648225,32.7391559 C109.680562,32.7391559 108.575725,31.2724428 108.575725,28.7244304 C108.575725,26.1978298 109.680562,24.7204108 111.648225,24.7204108 C113.605365,24.7204108 114.720725,26.1978298 114.720725,28.7244304 C114.720725,31.2617369 113.605365,32.7391559 111.648225,32.7391559 L111.648225,32.7391559 Z M111.648225,34.7839894 C114.994303,34.7839894 117.046144,32.5036253 117.046144,28.7244304 C117.046144,24.9666473 114.983781,22.6755773 111.648225,22.6755773 C108.302147,22.6755773 106.239784,24.9666473 106.239784,28.7244304 C106.239784,32.5036253 108.291624,34.7839894 111.648225,34.7839894 L111.648225,34.7839894 Z M118.077967,34.5591647 L120.340252,34.5591647 L120.340252,27.6752488 C120.340252,26.0372408 121.550312,24.9345295 123.254918,24.9345295 C123.63372,24.9345295 124.328189,25.0094711 124.507067,25.0737067 L124.507067,22.8040485 C124.265055,22.7398129 123.833642,22.7076951 123.507452,22.7076951 C122.013292,22.7076951 120.750621,23.542758 120.42443,24.688293 L120.256074,24.688293 L120.256074,22.900402 L118.077967,22.900402 L118.077967,34.5591647 Z M129.600482,24.6347634 C131.273521,24.6347634 132.367836,25.8231221 132.420447,27.6538369 L126.633205,27.6538369 C126.759472,25.833828 127.927443,24.6347634 129.600482,24.6347634 L129.600482,24.6347634 Z M132.409925,31.41162 C131.989035,32.3216244 131.052554,32.8248033 129.68466,32.8248033 C127.874831,32.8248033 126.706861,31.5293852 126.633205,29.4845517 L126.633205,29.3560805 L134.724822,29.3560805 L134.724822,28.5531354 C134.724822,24.8917058 132.799249,22.6755773 129.611004,22.6755773 C126.380671,22.6755773 124.32883,25.0415889 124.32883,28.7672541 C124.32883,32.4929194 126.338582,34.7839894 129.621526,34.7839894 C132.241569,34.7839894 134.072442,33.4992772 134.588033,31.41162 L132.409925,31.41162 Z" id="App-Store" fill="#FFFFFF"></path>
            <path d="M48.3160094,7.05184618 L48.3160094,14.4083527 L50.9265318,14.4083527 C53.0810897,14.4083527 54.328729,13.0573657 54.328729,10.7071581 C54.328729,8.39263704 53.0710685,7.05184618 50.9265318,7.05184618 L48.3160094,7.05184618 Z M49.4383837,8.09185125 L50.8012668,8.09185125 C52.2994361,8.09185125 53.1863123,9.06048343 53.1863123,10.7224523 C53.1863123,12.4099115 52.3144679,13.3683476 50.8012668,13.3683476 L49.4383837,13.3683476 L49.4383837,8.09185125 Z M58.2780836,13.5416818 C57.3411014,13.5416818 56.8149885,12.843247 56.8149885,11.6299077 C56.8149885,10.4267646 57.3411014,9.72323176 58.2780836,9.72323176 C59.2100551,9.72323176 59.7411787,10.4267646 59.7411787,11.6299077 C59.7411787,12.8381489 59.2100551,13.5416818 58.2780836,13.5416818 L58.2780836,13.5416818 Z M58.2780836,14.515412 C59.8714542,14.515412 60.8485212,13.4295244 60.8485212,11.6299077 C60.8485212,9.84048724 59.8664436,8.74950152 58.2780836,8.74950152 C56.6847129,8.74950152 55.7026354,9.84048724 55.7026354,11.6299077 C55.7026354,13.4295244 56.6797023,14.515412 58.2780836,14.515412 L58.2780836,14.515412 Z M69.2923836,8.85656087 L68.2151047,8.85656087 L67.2430484,13.0930521 L67.1578682,13.0930521 L66.0354939,8.85656087 L65.0033104,8.85656087 L63.880936,13.0930521 L63.8007665,13.0930521 L62.8236995,8.85656087 L61.7313888,8.85656087 L63.2345687,14.4083527 L64.3419112,14.4083527 L65.4642855,10.3197053 L65.5494657,10.3197053 L66.6768506,14.4083527 L67.7942143,14.4083527 L69.2923836,8.85656087 Z M70.6612794,14.4083527 L71.7385583,14.4083527 L71.7385583,11.1608858 C71.7385583,10.2942149 72.2696819,9.75382015 73.1365156,9.75382015 C73.9382116,9.75382015 74.3290383,10.1973517 74.3290383,11.0895129 L74.3290383,14.4083527 L75.4063173,14.4083527 L75.4063173,10.8142175 C75.4063173,9.49381888 74.7198651,8.74950152 73.5022894,8.74950152 C72.6805511,8.74950152 72.0442049,9.1216602 71.7786431,9.73852596 L71.6984735,9.73852596 L71.6984735,8.85656087 L70.6612794,8.85656087 L70.6612794,14.4083527 Z M77.226167,14.4083527 L78.3034459,14.4083527 L78.3034459,6.68988363 L77.226167,6.68988363 L77.226167,14.4083527 Z M82.4782775,13.5416818 C81.5412954,13.5416818 81.0151825,12.843247 81.0151825,11.6299077 C81.0151825,10.4267646 81.5412954,9.72323176 82.4782775,9.72323176 C83.4102491,9.72323176 83.9413726,10.4267646 83.9413726,11.6299077 C83.9413726,12.8381489 83.4102491,13.5416818 82.4782775,13.5416818 L82.4782775,13.5416818 Z M82.4782775,14.515412 C84.0716482,14.515412 85.0487151,13.4295244 85.0487151,11.6299077 C85.0487151,9.84048724 84.0666376,8.74950152 82.4782775,8.74950152 C80.8849069,8.74950152 79.9028293,9.84048724 79.9028293,11.6299077 C79.9028293,13.4295244 80.8798963,14.515412 82.4782775,14.515412 L82.4782775,14.515412 Z M88.381766,13.5773682 C87.7955258,13.5773682 87.3696249,13.2867786 87.3696249,12.7871683 C87.3696249,12.2977541 87.7103456,12.0377529 88.4619356,11.9867722 L89.7947551,11.9001051 L89.7947551,12.364029 C89.7947551,13.0522676 89.1934831,13.5773682 88.381766,13.5773682 L88.381766,13.5773682 Z M88.106183,14.5001178 C88.8226988,14.5001178 89.4189601,14.1840378 89.7446491,13.6283489 L89.8298293,13.6283489 L89.8298293,14.4083527 L90.8670234,14.4083527 L90.8670234,10.615393 C90.8670234,9.44283824 90.0953911,8.74950152 88.7274974,8.74950152 C87.4898793,8.74950152 86.6080137,9.36126921 86.4977805,10.3146072 L87.5399853,10.3146072 C87.6602396,9.92205626 88.0761194,9.69774144 88.6773914,9.69774144 C89.4139495,9.69774144 89.7947551,10.0291156 89.7947551,10.615393 L89.7947551,11.094611 L88.3166282,11.1812781 C87.0188829,11.2628471 86.2873354,11.8389284 86.2873354,12.8381489 C86.2873354,13.8526637 87.0539571,14.5001178 88.106183,14.5001178 L88.106183,14.5001178 Z M94.6510282,14.5001178 C95.4026182,14.5001178 96.0389643,14.1381553 96.3646533,13.5314856 L96.4498335,13.5314856 L96.4498335,14.4083527 L97.482017,14.4083527 L97.482017,6.68988363 L96.4047381,6.68988363 L96.4047381,9.73852596 L96.3245685,9.73852596 C96.0289431,9.12675827 95.3976076,8.76479571 94.6510282,8.76479571 C93.2731133,8.76479571 92.3862372,9.87617369 92.3862372,11.6299077 C92.3862372,13.3887398 93.2630921,14.5001178 94.6510282,14.5001178 L94.6510282,14.5001178 Z M94.9566748,9.74872209 C95.8585827,9.74872209 96.4247805,10.4777453 96.4247805,11.6350058 C96.4247805,12.7973644 95.8635933,13.5161915 94.9566748,13.5161915 C94.0447457,13.5161915 93.4985903,12.8075605 93.4985903,11.6299077 C93.4985903,10.4624511 94.0497563,9.74872209 94.9566748,9.74872209 L94.9566748,9.74872209 Z M104.719327,13.5416818 C103.782345,13.5416818 103.256232,12.843247 103.256232,11.6299077 C103.256232,10.4267646 103.782345,9.72323176 104.719327,9.72323176 C105.651299,9.72323176 106.182422,10.4267646 106.182422,11.6299077 C106.182422,12.8381489 105.651299,13.5416818 104.719327,13.5416818 L104.719327,13.5416818 Z M104.719327,14.515412 C106.312698,14.515412 107.289765,13.4295244 107.289765,11.6299077 C107.289765,9.84048724 106.307687,8.74950152 104.719327,8.74950152 C103.125956,8.74950152 102.143879,9.84048724 102.143879,11.6299077 C102.143879,13.4295244 103.120946,14.515412 104.719327,14.515412 L104.719327,14.515412 Z M108.839042,14.4083527 L109.916321,14.4083527 L109.916321,11.1608858 C109.916321,10.2942149 110.447445,9.75382015 111.314278,9.75382015 C112.115974,9.75382015 112.506801,10.1973517 112.506801,11.0895129 L112.506801,14.4083527 L113.58408,14.4083527 L113.58408,10.8142175 C113.58408,9.49381888 112.897628,8.74950152 111.680052,8.74950152 C110.858314,8.74950152 110.221968,9.1216602 109.956406,9.73852596 L109.876236,9.73852596 L109.876236,8.85656087 L108.839042,8.85656087 L108.839042,14.4083527 Z M118.797108,7.51067195 L118.797108,8.88205119 L117.90021,8.88205119 L117.90021,9.80480079 L118.797108,9.80480079 L118.797108,12.9401102 C118.797108,14.0107037 119.273115,14.4389411 120.470648,14.4389411 C120.681093,14.4389411 120.876507,14.4134507 121.046867,14.3828623 L121.046867,13.4703089 C120.896549,13.4856031 120.811369,13.4957992 120.646019,13.4957992 C120.109885,13.4957992 119.874387,13.240896 119.874387,12.6597167 L119.874387,9.80480079 L121.096973,9.80480079 L121.096973,8.88205119 L119.874387,8.88205119 L119.874387,7.51067195 L118.797108,7.51067195 Z M122.631219,14.4083527 L123.708497,14.4083527 L123.708497,11.1659839 C123.708497,10.3248033 124.254653,9.75891821 125.136518,9.75891821 C125.948235,9.75891821 126.354094,10.2075479 126.354094,11.094611 L126.354094,14.4083527 L127.431373,14.4083527 L127.431373,10.8244136 C127.431373,9.50401501 126.729889,8.75459959 125.502292,8.75459959 C124.680554,8.75459959 124.049218,9.12675827 123.783656,9.74872209 L123.698476,9.74872209 L123.698476,6.68988363 L122.631219,6.68988363 L122.631219,14.4083527 Z M131.445865,9.68244725 C132.242551,9.68244725 132.763653,10.2483324 132.788706,11.1201013 L130.032876,11.1201013 C130.093003,10.2534304 130.64918,9.68244725 131.445865,9.68244725 L131.445865,9.68244725 Z M132.783695,12.9095218 C132.583271,13.3428573 132.137328,13.5824663 131.48595,13.5824663 C130.624127,13.5824663 130.06795,12.9656005 130.032876,11.9918703 L130.032876,11.9306935 L133.886027,11.9306935 L133.886027,11.5483387 C133.886027,9.80480079 132.969088,8.74950152 131.450876,8.74950152 C129.912622,8.74950152 128.935555,9.87617369 128.935555,11.6503 C128.935555,13.4244263 129.892579,14.515412 131.455887,14.515412 C132.703526,14.515412 133.57537,13.9036443 133.82089,12.9095218 L132.783695,12.9095218 Z" id="Download-on-the" fill="#FFFFFF"></path>
            <g id="logo_apple" transform="translate(13.340220, 7.995360)" fill="#FFFFFF">
                <g id="Group-5">
                    <path d="M19.8400649,15.7191191 C19.8070416,11.9849156 22.8451825,10.1682134 22.984108,10.0836348 C21.2634817,7.53121452 18.5965679,7.18247258 17.6593902,7.15466591 C15.4195015,6.91483341 13.246798,8.51835117 12.105787,8.51835117 C10.9420014,8.51835117 9.18493564,7.17783813 7.29122185,7.21723091 C4.85433219,7.25546507 2.57458775,8.69098422 1.32425838,10.920152 C-1.2561117,15.4653833 0.668347894,22.1447763 3.14053829,25.8187321 C4.37720286,27.6192137 5.82225565,29.6270867 7.71369197,29.5564115 C9.56413389,29.4799431 10.2553451,28.3560904 12.4884015,28.3560904 C14.7009606,28.3560904 15.3500387,29.5564115 17.2790533,29.510067 C19.2650045,29.4799431 20.5153338,27.7037923 21.7087265,25.8870901 C23.137837,23.8270796 23.7117587,21.7937171 23.7345334,21.6894421 C23.688984,21.6743802 19.8787818,20.1948338 19.8400649,15.7191191" id="Fill-2"></path>
                    <path d="M16.1961177,4.73780316 C17.1913708,3.47144123 17.8723334,1.74858653 17.6833036,0.000242390541 C16.2428058,0.0651246119 14.4413294,1.0140271 13.4039432,2.25258236 C12.486124,3.34399401 11.6662359,5.13288955 11.8780403,6.81519286 C13.4961806,6.93800563 15.1575928,5.9844687 16.1961177,4.73780316" id="Fill-3"></path>
                </g>
            </g>
        </g>
    </g>
</svg>