<?xml version="1.0" encoding="UTF-8"?>
<svg width="162px" height="56px" viewBox="0 0 162 56" version="1.1" xmlns="http://www.w3.org/2000/svg" xmlns:xlink="http://www.w3.org/1999/xlink">
    <title>app2</title>
    <defs>
        <filter x="-8.9%" y="-29.3%" width="117.8%" height="158.7%" filterUnits="objectBoundingBox" id="filter-1">
            <feOffset dx="2" dy="2" in="SourceAlpha" result="shadowOffsetOuter1"></feOffset>
            <feGaussianBlur stdDeviation="2.5" in="shadowOffsetOuter1" result="shadowBlurOuter1"></feGaussianBlur>
            <feColorMatrix values="0 0 0 0 0   0 0 0 0 0   0 0 0 0 0  0 0 0 0.1 0" type="matrix" in="shadowBlurOuter1" result="shadowMatrixOuter1"></feColorMatrix>
            <feMerge>
                <feMergeNode in="shadowMatrixOuter1"></feMergeNode>
                <feMergeNode in="SourceGraphic"></feMergeNode>
            </feMerge>
        </filter>
        <rect id="path-2" x="0" y="0" width="152" height="45.9159537" rx="5.13"></rect>
        <linearGradient x1="50%" y1="0%" x2="50%" y2="38.9125982%" id="linearGradient-3">
            <stop stop-color="#FBDA09" offset="0%"></stop>
            <stop stop-color="#FFBC00" offset="100%"></stop>
        </linearGradient>
        <path d="M11.3986459,2.65473079 C12.2679857,1.09149068 13.6764201,1.08957691 14.5468494,2.65473079 L27.0673956,25.1684268 C27.9367606,26.7316669 27.1929139,27.9989234 25.4059265,27.9989234 L0.539978139,27.9989234 C-1.24699094,27.9989234 -1.99194073,26.7335807 -1.12153667,25.1684268 L11.3986459,2.65473079 Z" id="path-4"></path>
        <linearGradient x1="38.0650319%" y1="58.4755255%" x2="54.6084458%" y2="39.0830098%" id="linearGradient-6">
            <stop stop-color="#01E2FF" offset="0%"></stop>
            <stop stop-color="#01C4FF" offset="100%"></stop>
        </linearGradient>
        <linearGradient x1="20.2810876%" y1="31.6239776%" x2="83.820166%" y2="70.6645352%" id="linearGradient-7">
            <stop stop-color="#28D781" offset="0%"></stop>
            <stop stop-color="#02F076" offset="100%"></stop>
        </linearGradient>
        <linearGradient x1="74.4881466%" y1="34.4863638%" x2="10.1079427%" y2="69.6166134%" id="linearGradient-8">
            <stop stop-color="#F2414E" offset="0%"></stop>
            <stop stop-color="#E02554" offset="100%"></stop>
        </linearGradient>
    </defs>
    <g id="app2" stroke="none" stroke-width="1" fill="none" fill-rule="evenodd">
        <g id="Playstore" filter="url(#filter-1)" transform="translate(3.000000, 3.000000)">
            <g id="background" stroke-linejoin="square">
                <rect stroke="#A6A6A6" stroke-width="1.026" fill="#000000" fill-rule="evenodd" x="0.513" y="0.513" width="150.974" height="44.8899537" rx="5.13"></rect>
                <rect stroke="#8F8F8F" stroke-width="0.513" x="0.2565" y="0.2565" width="151.487" height="45.4029537" rx="5.13"></rect>
            </g>
            <g id="get-it-on" transform="translate(46.611970, 7.736364)" fill="#FFFFFF">
                <path d="M33.9367855,0 C35.9691339,0 37.6166779,1.6850374 37.6166779,3.76363636 C37.6166779,5.84223533 35.9691339,7.52727273 33.9367855,7.52727273 C31.904437,7.52727273 30.2568931,5.84223533 30.2568931,3.76363636 C30.2568931,1.6850374 31.904437,0 33.9367855,0 Z M33.9367855,1.15 C32.5254324,1.15 31.3813046,2.32016486 31.3813046,3.76363636 C31.3813046,5.20710787 32.5254324,6.37727273 33.9367855,6.37727273 C35.3481386,6.37727273 36.4922663,5.20710787 36.4922663,3.76363636 C36.4922663,2.32016486 35.3481386,1.15 33.9367855,1.15 Z" id="o"></path>
                <path d="M11.9596503,0.313636364 L11.9596503,1.15 L8.99488097,1.14963636 L8.99488097,3.34463636 L11.6529926,3.34545455 L11.6529926,4.18181818 L8.99488097,4.18163636 L8.99488097,6.48163636 L11.9596503,6.48181818 L11.9596503,7.31818182 L7.87088097,7.31818182 L7.87088097,0.313636364 L11.9596503,0.313636364 Z" id="e"></path>
                <path d="M17.6839274,0.313636364 L17.6839274,1.15 L15.9460619,1.14963636 L15.9462004,7.31818182 L14.8217888,7.31818182 L14.8210619,1.14963636 L13.0840619,1.15 L13.0840619,0.313636364 L17.6839274,0.313636364 Z" id="t"></path>
                <path d="M27.7014122,0.313636364 L27.7014122,1.15 L25.9635467,1.14963636 L25.9636853,7.31818182 L24.8392737,7.31818182 L24.8385467,1.14963636 L23.1015467,1.15 L23.1015467,0.313636364 L27.7014122,0.313636364 Z" id="t"></path>
                <polygon id="i" points="20.9549428 0.313636364 22.0793544 0.313636364 22.0793544 7.31818182 20.9549428 7.31818182"></polygon>
                <path d="M39.660651,1.85163636 L39.6610625,7.31818182 L38.536651,7.31818182 L38.536651,0.313636364 L39.865501,0.313636364 L42.931651,5.43963636 L42.932078,0.313636364 L44.0564896,0.313636364 L44.0564896,7.31818182 L42.932078,7.31818182 L39.660651,1.85163636 Z" id="n"></path>
                <g id="g" transform="translate(0.000000, 0.104545)">
                    <polygon id="Rectangle-1" points="3.65773759 3.36323891 6.73633339 3.36323891 6.70585225 4.35975414 3.65773759 4.35975414"></polygon>
                    <path d="M3.61201587,0 C4.65485798,0 5.53150043,0.372272797 6.13071925,1.01875742 L5.4262276,1.73844828 C4.98681955,1.27934482 4.36267004,1.02765633 3.64249702,1.02765633 C2.20316672,1.02765633 1.03635898,2.2197269 1.03635898,3.69022047 C1.03635898,5.16071403 2.20316672,6.3527846 3.64249702,6.3527846 C5.08182731,6.3527846 6.10373053,5.50266904 6.10158733,3.69022047 C6.10402302,3.57815084 6.10146582,3.46906239 6.09413476,3.36306442 L6.992,3.363 L6.9935776,3.40027979 C7.3215963,5.86101656 5.74086265,7.30956746 3.79542226,7.37807288 L3.61201587,7.38044094 C1.61715651,7.37751863 0,5.72827296 0,3.69022047 C0,1.65216798 1.61715459,0 3.61201587,0 Z" id="Oval-1"></path>
                </g>
            </g>
            <g id="googleplay" transform="translate(46.100874, 20.072727)" fill="#FFFFFF">
                <g id="big-P" transform="translate(63.784802, 0.522727)">
                    <path d="M9.64228172,4.49856986 C9.64228146,8.41662658 6.30620029,8.99713972 6.30620029,8.99713972 L0.511096167,8.99714009 L0.511096167,3.67439822e-07 L6.30620029,0 C6.30620029,0 9.64228198,0.580513139 9.64228172,4.49856986 Z M5.59090121,2.17696189 L1.63550773,2.17631361 L1.63550773,7.00454545 L5.57497615,7.00446442 C5.68314637,7.00203337 7.3597848,6.92667075 7.3597848,4.59042953 C7.3597848,2.33206302 5.79305933,2.18636196 5.59090121,2.17696189 Z" id="Combined-Shape"></path>
                    <rect id="Rectangle-6" x="0" y="0" width="2.04438467" height="14.6363636"></rect>
                </g>
                <rect id="y" x="74.6200403" y="0.522727273" width="2.04438467" height="14.6363636"></rect>
                <path d="M82.125876,5.43636364 C85.5899205,5.43636364 86.2533531,7.81737877 86.2850978,8.72084259 L86.286119,8.7771218 L86.286119,15.1543945 L84.2417343,15.1543945 L84.2427848,14.111718 C83.6797586,14.5872164 82.7792746,15.0349286 81.3565365,15.1258079 C78.0991471,15.333878 78.09745,12.2937898 78.09745,12.0887828 C78.09745,11.8837759 77.9367841,9.40454768 80.5279518,9.01046032 C82.3642609,8.73117843 83.6499473,9.19712749 84.2431967,9.49230981 L84.2428658,9.06598012 C84.0984419,8.4974522 83.647665,7.4454945 82.2891872,7.4454945 C80.4276881,7.4454945 80.0166061,8.474818 80.0166061,8.474818 L78.3137175,7.4454945 C78.3137175,7.4454945 79.2666232,5.43636363 82.125876,5.43636364 Z M80.0202497,12.1547874 C79.8833418,14.4177268 83.7987178,13.3311279 84.1485491,11.7269576 C84.148549,11.216839 84.0956926,10.977579 84.0956926,10.977579 C84.0956926,10.977579 80.1571575,9.891848 80.0202497,12.1547874 Z" id="a"></path>
                <path d="M88.5218561,5.75 L91.1434714,12.12 L93.7462172,5.8006392 L95.7906019,5.8006392 L90.2595831,19.2363636 L88.2151984,19.2363636 L90.1214714,14.603 L86.4774714,5.75 L88.5218561,5.75 Z" id="y"></path>
                <path d="M54.8841002,5.43636364 C58.311614,5.43636364 59.2079709,9.1713186 59.2079709,9.1713186 L59.2079709,9.1713186 L52.7421991,11.9042929 C52.7421991,11.9042929 53.1597825,13.4158967 55.1037632,13.4260281 C56.6259726,13.4339613 57.4852685,12.0461017 57.4852685,12.0461017 L57.4852685,12.0461017 L59.1257215,13.1823476 C59.1257215,13.1823476 57.8019658,15.3719854 55.0908419,15.3719854 C51.7592443,15.3719854 50.2918628,12.3924779 50.2918628,10.4574875 C50.2918628,8.5931742 51.4565864,5.43636364 54.8841002,5.43636364 Z M54.6868011,7.36469785 C52.0477384,7.85852485 52.3798421,10.2205266 52.3798421,10.2205266 L56.7478815,8.3971069 C56.7478815,8.3971069 55.9343976,7.13124493 54.6868011,7.36469785 Z" id="e"></path>
                <rect id="i" x="47.2252858" y="0.522727273" width="2.16283614" height="14.605615"></rect>
                <path d="M41.0867401,5.43790665 C42.8949847,5.38591126 43.7641319,6.66526511 43.7641319,6.66526511 L43.7641319,6.66526511 L43.7641319,5.75379111 L45.7634632,5.77145624 L45.7634632,14.9871515 C45.7634632,17.3417364 44.3928056,19.8272267 41.1659455,19.8272267 C37.9390854,19.8272267 36.8969284,16.9031242 36.8969284,16.9031242 L36.8969284,16.9031242 L38.7331276,16.113318 C38.7331276,16.113318 39.2931565,17.9154403 41.2613647,17.9154379 C43.5027229,17.9154352 43.7643804,15.8298905 43.7643804,15.1160025 L43.7643804,15.1160025 L43.7643804,14.115886 C43.7643804,14.115886 42.9888506,15.3572972 41.0625746,15.3572999 C38.9740984,15.3573029 36.4922663,13.527224 36.4922663,10.4073023 C36.4922663,7.28738068 38.8292301,5.5028205 41.0867401,5.43790665 Z M41.2332856,7.3826595 C39.7752912,7.3826595 38.5933533,8.74861665 38.5933533,10.4336102 C38.5933533,12.1186037 39.7752912,13.4845609 41.2332856,13.4845609 C42.69128,13.4845609 43.873218,12.1186037 43.873218,10.4336102 C43.873218,8.74861665 42.69128,7.3826595 41.2332856,7.3826595 Z" id="g"></path>
                <path d="M30.7278474,5.43636364 C33.4154755,5.43636364 35.5942287,7.65967687 35.5942287,10.4022727 C35.5942287,13.1448686 33.4154755,15.3681818 30.7278474,15.3681818 C28.0402192,15.3681818 25.861466,13.1448686 25.861466,10.4022727 C25.861466,7.65967687 28.0402192,5.43636364 30.7278474,5.43636364 Z M30.6960409,7.38377897 C29.185348,7.38377897 27.9606894,8.73520466 27.9606894,10.4022727 C27.9606894,12.0693408 29.185348,13.4207665 30.6960409,13.4207665 C32.2067339,13.4207665 33.4313925,12.0693408 33.4313925,10.4022727 C33.4313925,8.73520466 32.2067339,7.38377897 30.6960409,7.38377897 Z" id="o"></path>
                <path d="M20.1992663,5.43636364 C22.8868945,5.43636364 25.0656476,7.65967687 25.0656476,10.4022727 C25.0656476,13.1448686 22.8868945,15.3681818 20.1992663,15.3681818 C17.5116381,15.3681818 15.332885,13.1448686 15.332885,10.4022727 C15.332885,7.65967687 17.5116381,5.43636364 20.1992663,5.43636364 Z M20.1674599,7.38377897 C18.6567669,7.38377897 17.4321083,8.73520466 17.4321083,10.4022727 C17.4321083,12.0693408 18.6567669,13.4207665 20.1674599,13.4207665 C21.6781529,13.4207665 22.9028115,12.0693408 22.9028115,10.4022727 C22.9028115,8.73520466 21.6781529,7.38377897 20.1674599,7.38377897 Z" id="o"></path>
                <g id="big-g">
                    <polygon id="Rectangle-1" points="7.63353931 7.01069519 14.0584349 7.01069519 13.9948221 9.08793821 7.63353931 9.08793821"></polygon>
                    <path d="M7.53812007,0 C9.71414789,0 11.543432,0.77576401 12.7939612,2.12297856 L11.3242767,3.62378228 C10.4072525,2.66679401 9.1046894,2.14215686 7.6017329,2.14215686 C4.59791316,2.14215686 2.16283614,4.62703636 2.16283614,7.69229055 C2.16283614,10.7575447 4.59791316,13.2424242 7.6017329,13.2424242 C10.6055526,13.2424242 12.7382202,11.4703524 12.7337475,7.69229055 C12.738835,7.45847942 12.7334847,7.23089328 12.7181547,7.00976058 L14.594,7.01 L14.5952924,7.08790716 C15.2886394,12.2831655 11.8955924,15.3140071 7.76418188,15.38372 L7.53812007,15.3845811 C3.37493533,15.3784895 0,11.9406253 0,7.69229055 C0,3.44395579 3.37493131,0 7.53812007,0 Z" id="Oval-1"></path>
                </g>
            </g>
            <g id="logo_play" transform="translate(11.141896, 8.154545)">
                <mask id="mask-5" fill="white">
                    <use xlink:href="#path-4"></use>
                </mask>
                <use id="yellow" fill="url(#linearGradient-3)" transform="translate(12.972533, 14.751903) rotate(-270.000000) translate(-12.972533, -14.751903) " xlink:href="#path-4"></use>
                <polygon id="blue" fill="url(#linearGradient-6)" mask="url(#mask-5)" points="-1.11022302e-16 -0.0103093439 14.288904 14.5147501 -0.184562505 29.6139112"></polygon>
                <polygon id="green" fill="url(#linearGradient-7)" mask="url(#mask-5)" points="-2.93832972 -3.00050219 14.2872083 14.5189987 19.4085614 9.52212842"></polygon>
                <polygon id="red" fill="url(#linearGradient-8)" mask="url(#mask-5)" points="14.2895547 14.5156562 22.129833 22.5981311 -1.29225302 30.6806061"></polygon>
            </g>
        </g>
    </g>
</svg>