<?xml version="1.0" encoding="UTF-8"?>
<svg width="32px" height="32px" viewBox="0 0 32 32" version="1.1" xmlns="http://www.w3.org/2000/svg" xmlns:xlink="http://www.w3.org/1999/xlink">
    <title>app3</title>
    <g id="app3" stroke="none" stroke-width="1" fill="none" fill-rule="evenodd">
        <g id="Apple">
            <circle id="Oval" stroke="#222222" stroke-width="0.799999952" cx="15.999999" cy="15.999999" r="15.5999991"></circle>
            <g id="Group-5" transform="translate(10.399999, 8.799999)" fill="#222222">
                <path d="M9.52323057,7.54517673 C9.5073794,5.75275913 10.965687,4.88074213 11.0323712,4.8401444 C10.2064706,3.61498275 8.92635206,3.44758663 8.47650681,3.43423943 C7.40136027,3.31911984 6.35846265,4.08880832 5.81077743,4.08880832 C5.25216036,4.08880832 4.40876884,3.4453621 3.49978628,3.46427063 C2.33007931,3.48262303 1.23580205,4.17167218 0.635643985,5.24167263 C-0.602933579,7.42338354 0.32080697,10.629492 1.50745829,12.3929906 C2.10105725,13.2572218 2.79468255,14.2210008 3.70257193,14.1870767 C4.59078399,14.1503719 4.92256536,13.6109226 5.99443235,13.6109226 C7.05646069,13.6109226 7.36801815,14.1870767 8.29394507,14.1648313 C9.24720159,14.1503719 9.84735965,13.2978195 10.4201881,12.4258025 C11.1061611,11.4369975 11.3816435,10.4609836 11.3925753,10.4109316 C11.3707117,10.4037019 9.5418147,9.69351964 9.52323057,7.54517673" id="Fill-2"></path>
                <path d="M7.77413604,2.27414538 C8.25185748,1.66629169 8.57871952,0.839321487 8.48798524,0.000116347453 C7.79654631,0.0312598119 6.9318377,0.486732979 6.43389235,1.08123947 C5.99333917,1.60511703 5.5997929,2.46378684 5.70145902,3.27129238 C6.47816631,3.33024251 7.2756441,2.87254481 7.77413604,2.27414538" id="Fill-3"></path>
            </g>
        </g>
    </g>
</svg>