<?xml version="1.0" encoding="UTF-8"?>
<svg width="32px" height="32px" viewBox="0 0 32 32" version="1.1" xmlns="http://www.w3.org/2000/svg" xmlns:xlink="http://www.w3.org/1999/xlink">
    <title>app4</title>
    <g id="app4" stroke="none" stroke-width="1" fill="none" fill-rule="evenodd">
        <g id="Play" transform="translate(-0.000003, 0.000000)">
            <circle id="Oval" stroke="#222222" stroke-width="0.799999952" cx="15.999999" cy="15.999999" r="15.5999991"></circle>
            <g id="Group" transform="translate(10.399999, 9.599999)" fill="#222222">
                <path d="M2.38893397,0.228553593 C1.88911022,-0.0477068198 1.30225645,-0.0413192958 0.805626463,0.232545795 L6.62625769,5.60205815 L8.58163847,3.64667737 L2.38893397,0.228553593" id="Fill-1"></path>
                <path d="M0.22356334,0.781872858 C0.0814409308,1.01421904 0,1.28009973 0,1.56194922 L0,11.2598075 C0,11.5328742 0.0742549663,11.7931658 0.20839297,12.0207213 L6.06176026,6.16735402 L0.22356334,0.781872858" id="Fill-3"></path>
                <path d="M11.1741748,5.07748274 L9.30901777,4.04829294 L7.21311146,6.1434008 L9.78169454,8.51237376 L11.1749732,7.74347556 C11.6763938,7.46561827 11.9766075,6.9673914 11.9766075,6.41007993 C11.975809,5.85276846 11.6763938,5.35454159 11.1741748,5.07748274" id="Fill-4"></path>
                <path d="M6.64861403,6.70869668 L0.779277926,12.5780328 C1.03398045,12.7233489 1.31343462,12.7999992 1.59448567,12.7999992 C1.86595544,12.7999992 2.13902209,12.7313334 2.38893397,12.5932031 L9.0455324,8.91957842 L6.64861403,6.70869668" id="Fill-5"></path>
            </g>
        </g>
    </g>
</svg>