<?xml version="1.0" encoding="UTF-8"?>
<svg width="25px" height="31px" viewBox="0 0 25 31" version="1.1" xmlns="http://www.w3.org/2000/svg" xmlns:xlink="http://www.w3.org/1999/xlink">
    <title>cash</title>
    <g id="cash" stroke="none" stroke-width="1" fill="none" fill-rule="evenodd">
        <g id="61584" fill-rule="nonzero">
            <path d="M14.5463881,19.9932011 C14.4339943,19.8701133 14.2917847,19.7780453 14.14483,19.7013456 C13.8248584,19.5344901 13.4749292,19.4332861 13.1274788,19.3419263 L13.1274788,22.0342776 C13.6914306,21.9705382 14.338881,21.765864 14.6349858,21.2393768 L14.6349858,21.2393768 C14.7763456,20.9878895 14.8044618,20.6788952 14.7468839,20.3989377 C14.7156516,20.247238 14.6511331,20.1080028 14.5463881,19.9932011 Z" id="Path" fill="#00D09C"></path>
            <path d="M14.6459878,21.260201 C14.6475878,21.257501 14.6484878,21.255801 14.6501878,21.252901 L14.6501878,21.252901 C14.6487878,21.255301 14.6473878,21.257701 14.6459878,21.260201 Z" id="Path" fill="#000000"></path>
            <path d="M10.4822238,15.6892351 C10.3852691,15.8308074 10.3244334,15.9916431 10.3076487,16.1626062 C10.290864,16.3339235 10.3002833,16.5245042 10.3653683,16.6857649 C10.4273371,16.8394476 10.557153,16.9529037 10.6911473,17.0442635 C10.8415014,17.1465297 11.0068697,17.2264164 11.1752833,17.2941218 C11.3165722,17.3509915 11.4754958,17.4053824 11.646813,17.457932 L11.646813,15.0216714 C11.2140227,15.1140227 10.7411473,15.3111898 10.4822238,15.6892351 Z" id="Path" fill="#00D09C"></path>
            <path d="M14.6630554,21.2299802 C14.6580554,21.2388802 14.6526554,21.2481802 14.6473554,21.2579802 L14.6473554,21.2579802 C14.6535554,21.2465802 14.6584554,21.2381802 14.6630554,21.2299802 Z" id="Path" fill="#000000"></path>
            <path d="M14.6747758,21.2091263 C14.6760758,21.2067263 14.6762758,21.2065263 14.6747758,21.2091263 L14.6747758,21.2091263 Z" id="Path" fill="#000000"></path>
            <path d="M14.0759915,6.54879603 C16.3655807,4.62542493 17.8954674,0.292351275 16.953966,0.102832861 C15.7029745,-0.14907932 12.9864023,0.955524079 11.6733711,1.15014164 C9.81104816,1.375 7.78271955,-0.869334278 6.64419263,0.381657224 C5.71848442,1.39879603 7.30786119,5.09780453 9.79447592,6.70927762 C2.37577904,10.3554533 -8.05169972,28.6595609 10.1395892,29.9876771 C35.3103399,31.8254249 22.7064448,10.1019122 14.0759915,6.54879603 Z M16.2376771,20.9842776 C16.1602691,21.6978754 15.7820822,22.3432011 15.2167847,22.7813031 C14.6199008,23.2439093 13.8712465,23.4590652 13.1274079,23.5193343 L13.1274079,24.3077904 C13.1274079,24.5187677 13.0352691,24.7228045 12.8773371,24.8624646 C12.6602691,25.0545326 12.341289,25.1019122 12.0778329,24.9805241 C11.8177054,24.8608357 11.646813,24.594051 11.646813,24.3077904 L11.646813,23.446034 C11.5192635,23.421813 11.3926346,23.3929887 11.2674929,23.3586402 C10.5723088,23.1676346 9.92747875,22.7953258 9.45644476,22.2444759 C9.22181303,21.9699008 9.03052408,21.6583569 8.89822946,21.3220255 C8.86366856,21.234136 8.83286119,21.1446176 8.80587819,21.0541076 C8.78144476,20.9721671 8.75623229,20.888881 8.74752125,20.8034703 C8.73286119,20.6601983 8.76126062,20.5140227 8.82804533,20.3864023 C8.96529745,20.1238669 9.25453258,19.9652975 9.54985836,19.9916431 C9.84050992,20.0174221 10.095255,20.2191218 10.1867564,20.4961756 C10.2149433,20.5815156 10.2340652,20.6689802 10.2657224,20.7533994 C10.2970963,20.8372521 10.3349858,20.9187677 10.3795326,20.9963881 C10.4674929,21.149221 10.5776912,21.2901558 10.7046034,21.4124646 C10.9662181,21.6645184 11.2994334,21.8283286 11.646813,21.925779 L11.646813,18.9964589 C10.9675637,18.8206091 10.2664306,18.5934844 9.70552408,18.1573654 C9.43293201,17.9453258 9.2016289,17.6818697 9.05014164,17.3700425 C8.89029745,17.0409348 8.82407932,16.6742918 8.8213881,16.3101275 C8.81862606,15.9403683 8.88888102,15.5738669 9.04313031,15.2369688 C9.18760623,14.9215297 9.39560907,14.6383144 9.65063739,14.4035411 C10.1959632,13.9016289 10.9203258,13.6216714 11.6468839,13.5188385 L11.6468839,13.4543909 L11.6468839,12.7003541 C11.6468839,12.4894476 11.7390227,12.2853399 11.8969547,12.1456799 C12.1140935,11.9536827 12.432932,11.9062323 12.6964589,12.0276204 C12.9565156,12.1473796 13.1274788,12.4140935 13.1274788,12.7003541 L13.1274788,13.4543909 L13.1274788,13.5143768 C13.2242918,13.5265581 13.3208215,13.5411473 13.4168555,13.5585694 C14.1303116,13.6876771 14.8281161,13.9822946 15.3498584,14.4966714 C15.5970255,14.7402975 15.7993626,15.0305949 15.9416431,15.3471671 C15.9813739,15.4354816 16.0161473,15.5258499 16.0462465,15.6179887 C16.0742918,15.7038952 16.1024788,15.7923513 16.115864,15.8820113 C16.1372521,16.0251416 16.1154391,16.173017 16.0541785,16.303966 C15.9286827,16.572238 15.647238,16.7430595 15.3511331,16.7303824 C15.0601983,16.7177054 14.7966006,16.5282578 14.6924221,16.2563031 C14.6614023,16.1754249 14.6458924,16.0898017 14.6142351,16.009136 C14.5822946,15.9274788 14.5409348,15.8495751 14.493272,15.7759915 C14.4006374,15.632932 14.2805949,15.5102691 14.1435552,15.4092068 C13.846813,15.190085 13.486898,15.0759207 13.1272663,15.0121105 L13.1272663,17.8153683 C13.5546742,17.9177054 13.9824363,18.0293201 14.3919263,18.1907932 C15.0108357,18.4348442 15.5973088,18.8090652 15.9351275,19.3991501 C15.8827195,19.3072238 15.831728,19.2176346 15.936898,19.4021955 C16.0401558,19.5834986 15.990864,19.4970963 15.9390227,19.4062323 C16.2077904,19.8798867 16.2961048,20.4462465 16.2376771,20.9842776 Z" id="Shape" fill="#00D09C"></path>
            <path d="M14.6410153,21.2689612 C14.6349153,21.2798612 14.6296153,21.2894612 14.6254153,21.2967612 C14.6290153,21.2904612 14.6344153,21.2809612 14.6410153,21.2689612 Z" id="Path" fill="#00D09C"></path>
        </g>
    </g>
</svg>