<?xml version="1.0" encoding="UTF-8"?>
<svg width="172px" height="30px" viewBox="0 0 172 30" version="1.1" xmlns="http://www.w3.org/2000/svg" xmlns:xlink="http://www.w3.org/1999/xlink">
    <title>logo</title>
    <g id="logo" stroke="none" stroke-width="1" fill="none" fill-rule="evenodd">
        <g transform="translate(1.000000, -3.000000)">
            <text id="Neo-Funds" font-family="Futura-Medium, Futura" font-size="25.92" font-weight="400" fill="#222222">
                <tspan x="44.52975" y="27">Neo Funds</tspan>
            </text>
            <g id="Group-19" transform="translate(0.000000, 3.888000)" fill="#00D09C">
                <path d="M9.75179219,5.29565944 L14.0243601,1.02472409 L18.296928,5.29565944 C18.5395261,5.53825758 18.7266173,5.81693526 18.8560792,6.11373433 L19.6348094,6.11373433 C19.4707373,5.62690549 19.195488,5.17109526 18.8085717,4.78417898 L14.0243601,-3.26511628e-05 L9.23851591,4.78417898 C8.85176288,5.17109526 8.57635033,5.62690549 8.41407405,6.11373433 L9.19264102,6.11373433 C9.32226614,5.81693526 9.50919405,5.53825758 9.75179219,5.29565944" id="Fill-7" stroke="#00D09C" stroke-width="0.648"></path>
                <path d="M18.2968953,22.7515914 L14.0243274,27.0241593 L9.75175953,22.7515914 C9.5091614,22.50883 9.32223349,22.2301524 9.19260837,21.9333533 L8.4140414,21.9333533 C8.57631767,22.4203454 8.85189349,22.8777882 9.23864651,23.2647045 L14.0243274,28.0487528 L18.8085391,23.2647045 C19.1970879,22.8777882 19.4725005,22.4203454 19.6347767,21.9333533 L18.8560465,21.9333533 C18.7265847,22.2301524 18.5394935,22.50883 18.2968953,22.7515914" id="Fill-10" stroke="#00D09C" stroke-width="0.648"></path>
                <path d="M-3.26511628e-05,14.0244254 L4.78417898,18.8084738 C5.17109526,19.19539 5.62690549,19.4709659 6.11373433,19.6348747 L6.11373433,18.8576138 C5.81220084,18.7248868 5.53499247,18.5363263 5.29565944,18.2969933 L1.02472409,14.0244254 L5.29565944,9.75185749 C5.53499247,9.51252447 5.81220084,9.32233144 6.11373433,9.19123702 L6.11373433,8.41397609 C5.62690549,8.57804819 5.17109526,8.85182819 4.78417898,9.23874447 L-3.26511628e-05,14.0244254 Z" id="Fill-14" stroke="#00D09C" stroke-width="0.648"></path>
                <text id="NF" font-family="Futura-Medium, Futura" font-size="10.368" font-weight="400">
                    <tspan x="7.8924375" y="18.776">NF</tspan>
                </text>
                <path d="M23.2647045,9.23866284 C22.8761556,8.85174656 22.4203454,8.576334 21.9333533,8.41405772 L21.9333533,9.1911554 C22.2334175,9.32224981 22.5122584,9.51244284 22.7514282,9.75193912 L27.0239961,14.0243438 L22.7514282,18.2969117 C22.5122584,18.536408 22.2334175,18.7248052 21.9333533,18.8576954 L21.9333533,19.6347931 C22.4203454,19.4725168 22.8761556,19.1971042 23.2647045,18.8085554 L28.0487528,14.0243438 L23.2647045,9.23866284 Z" id="Fill-17" stroke="#00D09C" stroke-width="0.648"></path>
            </g>
        </g>
    </g>
</svg>