<?xml version="1.0" encoding="UTF-8"?>
<svg width="9px" height="14px" viewBox="0 0 9 14" version="1.1" xmlns="http://www.w3.org/2000/svg" xmlns:xlink="http://www.w3.org/1999/xlink">
    <title>phone</title>
    <g id="phone" stroke="none" stroke-width="1" fill="none" fill-rule="evenodd">
        <g id="15874" fill="#00D09C" fill-rule="nonzero">
            <path d="M7.11744444,0 L1.04922222,0 C0.543666667,0 0.129888889,0.413388889 0.129888889,0.919333333 L0.129888889,12.6913889 C0.129888889,13.1973333 0.543666667,13.6111111 1.04922222,13.6111111 L7.11744444,13.6111111 C7.623,13.6111111 8.03677778,13.1981111 8.03677778,12.6917778 L8.03677778,0.919333333 C8.03677778,0.413388889 7.623,0 7.11744444,0 Z M3.11266667,0.662666667 L5.054,0.662666667 C5.11544444,0.662666667 5.16522222,0.712444444 5.16522222,0.774277778 C5.16522222,0.835722222 5.11544444,0.8855 5.054,0.8855 L3.11266667,0.8855 C3.05122222,0.8855 3.00144444,0.835722222 3.00144444,0.774277778 C3.00144444,0.712444444 3.05122222,0.662666667 3.11266667,0.662666667 Z M4.08333333,13.1514444 C3.82938889,13.1514444 3.62366667,12.9457222 3.62366667,12.6913889 C3.62366667,12.4370556 3.82938889,12.2317222 4.08333333,12.2317222 C4.33727778,12.2317222 4.543,12.4370556 4.543,12.6913889 C4.543,12.9457222 4.33727778,13.1514444 4.08333333,13.1514444 Z M7.39705556,11.9097222 L0.769611111,11.9097222 L0.769611111,1.45794444 L7.39705556,1.45794444 L7.39705556,11.9097222 Z" id="Shape"></path>
        </g>
    </g>
</svg>