<?xml version="1.0" encoding="UTF-8"?>
<svg width="24px" height="25px" viewBox="0 0 24 25" version="1.1" xmlns="http://www.w3.org/2000/svg" xmlns:xlink="http://www.w3.org/1999/xlink">
    <title>Schedule</title>
    <g id="Schedule" stroke="none" stroke-width="1" fill="none" fill-rule="evenodd">
        <g id="61469" fill="#00D09C" fill-rule="nonzero">
            <path d="M8.6427,13.46555 C8.6427,13.1598 8.3947,12.9121 8.0887,12.9121 L6.15545,12.9121 C5.8498,12.9121 5.60175,13.1598 5.60175,13.46555 L5.60175,15.39855 C5.60175,15.7047 5.8498,15.9525 6.15545,15.9525 L8.0887,15.9525 C8.3947,15.9525 8.6427,15.7047 8.6427,15.39855 L8.6427,13.46555 L8.6427,13.46555 Z" id="Path"></path>
            <path d="M13.47415,13.46555 C13.47415,13.1598 13.2261,12.9121 12.9207,12.9121 L10.9872,12.9121 C10.68155,12.9121 10.4335,13.1598 10.4335,13.46555 L10.4335,15.39855 C10.4335,15.7047 10.68155,15.9525 10.9872,15.9525 L12.9207,15.9525 C13.2261,15.9525 13.47415,15.7047 13.47415,15.39855 L13.47415,13.46555 Z" id="Path"></path>
            <path d="M18.30585,13.46555 C18.30585,13.1598 18.0578,12.9121 17.75215,12.9121 L15.8189,12.9121 C15.5129,12.9121 15.2649,13.1598 15.2649,13.46555 L15.2649,15.39855 C15.2649,15.7047 15.5129,15.9525 15.8189,15.9525 L17.75215,15.9525 C18.0578,15.9525 18.30585,15.7047 18.30585,15.39855 L18.30585,13.46555 Z" id="Path"></path>
            <path d="M8.6427,18.2975 C8.6427,17.99125 8.3947,17.74375 8.0887,17.74375 L6.15545,17.74375 C5.8498,17.74375 5.60175,17.99125 5.60175,18.2975 L5.60175,20.23015 C5.60175,20.5361 5.8498,20.78385 6.15545,20.78385 L8.0887,20.78385 C8.3947,20.78385 8.6427,20.53605 8.6427,20.23015 L8.6427,18.2975 L8.6427,18.2975 Z" id="Path"></path>
            <path d="M13.47415,18.2975 C13.47415,17.99125 13.2261,17.74375 12.9207,17.74375 L10.9872,17.74375 C10.68155,17.74375 10.4335,17.99125 10.4335,18.2975 L10.4335,20.23015 C10.4335,20.5361 10.68155,20.78385 10.9872,20.78385 L12.9207,20.78385 C13.2261,20.78385 13.47415,20.53605 13.47415,20.23015 L13.47415,18.2975 Z" id="Path"></path>
            <path d="M18.30585,18.2975 C18.30585,17.99125 18.0578,17.74375 17.7524,17.74375 L15.8189,17.74375 C15.5129,17.74375 15.2649,17.99125 15.2649,18.2975 L15.2649,20.23015 C15.2649,20.5361 15.5129,20.78385 15.8189,20.78385 L17.7524,20.78385 C18.0578,20.78385 18.30585,20.53605 18.30585,20.23015 L18.30585,18.2975 L18.30585,18.2975 Z" id="Path"></path>
            <path d="M21.7627,2.7177 L21.7627,5.6702 C21.7627,7.0047 20.6801,8.0801 19.3458,8.0801 L17.82115,8.0801 C16.48675,8.0801 15.3898,7.0047 15.3898,5.6702 L15.3898,2.7071 L8.5178,2.7071 L8.5178,5.6702 C8.5178,7.0047 7.4209,8.0801 6.0867,8.0801 L4.56175,8.0801 C3.2275,8.0801 2.14495,7.0047 2.14495,5.6702 L2.14495,2.7177 C0.9788,2.75285 0.02055,3.7178 0.02055,4.90385 L0.02055,22.2069 C0.02055,23.41525 0.99995,24.40765 2.2083,24.40765 L21.6993,24.40765 C22.90585,24.40765 23.88705,23.4132 23.88705,22.2069 L23.88705,4.90385 C23.88705,3.7178 22.92885,2.75285 21.7627,2.7177 Z M21.05455,21.1294 C21.05455,21.6516 20.63115,22.07525 20.10875,22.07525 L3.7572,22.07525 C3.2348,22.07525 2.8114,21.6516 2.8114,21.1294 L2.8114,12.19175 C2.8114,11.66935 3.23475,11.2457 3.7572,11.2457 L20.1087,11.2457 C20.6311,11.2457 21.05455,11.66935 21.05455,12.19175 L21.05455,21.1294 L21.05455,21.1294 Z" id="Shape"></path>
            <path d="M4.5564,6.49725 L6.0645,6.49725 C6.52225,6.49725 6.8934,6.12665 6.8934,5.6689 L6.8934,0.82865 C6.8934,0.37085 6.52225,0 6.0645,0 L4.5564,0 C4.0986,0 3.7275,0.37085 3.7275,0.82865 L3.7275,5.6689 C3.7275,6.12665 4.0986,6.49725 4.5564,6.49725 Z" id="Path"></path>
            <path d="M17.80175,6.49725 L19.30985,6.49725 C19.7673,6.49725 20.13845,6.12665 20.13845,5.6689 L20.13845,0.82865 C20.1385,0.37085 19.76735,0 19.30985,0 L17.80175,0 C17.34405,0 16.9729,0.37085 16.9729,0.82865 L16.9729,5.6689 C16.9729,6.12665 17.34405,6.49725 17.80175,6.49725 Z" id="Path"></path>
        </g>
    </g>
</svg>