<?xml version="1.0" encoding="UTF-8"?>
<svg width="15px" height="15px" viewBox="0 0 15 15" version="1.1" xmlns="http://www.w3.org/2000/svg" xmlns:xlink="http://www.w3.org/1999/xlink">
    <title>search</title>
    <g id="search" stroke="none" stroke-width="1" fill="none" fill-rule="evenodd" opacity="0.5">
        <path d="M5.44,9.18 C6.1200034,9.18 6.7466638,9.0100017 7.32,8.67 C7.8933362,8.3299983 8.346665,7.8733362 8.68,7.3 C9.013335,6.7266638 9.18,6.1000034 9.18,5.42 C9.18,4.7399966 9.013335,4.1133362 8.68,3.54 C8.346665,2.9666638 7.8933362,2.513335 7.32,2.18 C6.7466638,1.846665 6.1200034,1.68 5.44,1.68 C4.7599966,1.68 4.1333362,1.846665 3.56,2.18 C2.9866638,2.513335 2.5300017,2.9666638 2.19,3.54 C1.8499983,4.1133362 1.68,4.7399966 1.68,5.42 C1.68,6.1000034 1.8499983,6.7266638 2.19,7.3 C2.5300017,7.8733362 2.9866638,8.3299983 3.56,8.67 C4.1333362,9.0100017 4.7599966,9.18 5.44,9.18 Z M10.44,9.18 L14.58,13.32 L13.32,14.58 L9.18,10.42 L9.18,9.76 L8.94,9.54 C8.473331,9.9533354 7.9366697,10.2699989 7.33,10.49 C6.7233303,10.7100011 6.0933366,10.82 5.44,10.82 C4.4533284,10.82 3.5433375,10.5800024 2.71,10.1 C1.8766625,9.6199976 1.2200024,8.9733374 0.74,8.16 C0.2466642,7.3199958 0,6.4066716 0,5.42 C0,4.4333284 0.2433309,3.5233375 0.73,2.69 C1.2166691,1.8566625 1.8766625,1.2000024 2.71,0.72 C3.5433375,0.2399976 4.4533284,0 5.44,0 C6.4266716,0 7.3399958,0.2466642 8.18,0.74 C8.9933374,1.2200024 9.6366643,1.8733292 10.11,2.7 C10.5833357,3.5266708 10.82,4.4333284 10.82,5.42 C10.82,6.08667 10.7100011,6.7233303 10.49,7.33 C10.2699989,7.9366697 9.9533354,8.473331 9.54,8.94 L9.76,9.18 L10.44,9.18 Z" id="search---material" fill="#222222"></path>
    </g>
</svg>