<?xml version="1.0" encoding="UTF-8"?>
<svg width="8px" height="14px" viewBox="0 0 8 14" version="1.1" xmlns="http://www.w3.org/2000/svg" xmlns:xlink="http://www.w3.org/1999/xlink">
    <title>social 1</title>
    <g id="social-1" stroke="none" stroke-width="1" fill="none" fill-rule="evenodd">
        <g id="facebook-letter-logo" transform="translate(3.500000, 7.000000) rotate(-360.000000) translate(-3.500000, -7.000000) translate(-13.500000, -10.500000)" fill="#222222" fill-rule="nonzero">
            <path d="M15.513013,13.5968913 C15.513013,13.9264162 15.513013,15.3972241 15.513013,15.3972241 L14,15.3972241 L14,17.598678 L15.513013,17.598678 L15.513013,24.140625 L18.621063,24.140625 L18.621063,17.5988604 L20.7067088,17.5988604 C20.7067088,17.5988604 20.9020386,16.5432801 20.9967218,15.3891068 C20.7252618,15.3891068 18.6328155,15.3891068 18.6328155,15.3891068 C18.6328155,15.3891068 18.6328155,14.1083709 18.6328155,13.8838841 C18.6328155,13.6589109 18.9716872,13.3562916 19.3066181,13.3562916 C19.6409213,13.3562916 20.3464942,13.3562916 21,13.3562916 C21,13.0565604 21,12.0209236 21,11.0644531 C20.1275894,11.0644531 19.1350724,11.0644531 18.6975767,11.0644531 C15.4361854,11.0643011 15.513013,13.267944 15.513013,13.5968913 Z" id="Facebook"></path>
        </g>
    </g>
</svg>