<?xml version="1.0" encoding="UTF-8"?>
<svg width="18px" height="14px" viewBox="0 0 18 14" version="1.1" xmlns="http://www.w3.org/2000/svg" xmlns:xlink="http://www.w3.org/1999/xlink">
    <title>social 3</title>
    <g id="social-3" stroke="none" stroke-width="1" fill="none" fill-rule="evenodd">
        <path d="M15.9605689,5.81345135 C16.9715171,5.72549914 17.657256,5.2408573 17.9211563,4.5832678 C17.5564835,4.8194987 16.4244659,5.07704466 15.7992825,4.83176699 C15.768649,4.67686872 15.7344164,4.52973743 15.7008116,4.39690443 C15.2244436,2.55233519 13.5934176,1.06628264 11.8844268,1.24580577 C12.0226962,1.1869356 12.1629324,1.13212544 12.3027502,1.08291987 C12.4908618,1.01186966 13.5945475,0.822505418 13.4207483,0.411694015 C13.2742765,0.0503529715 11.9258155,0.684773933 11.6719172,0.76769526 C12.0070864,0.634774006 12.5613775,0.406133564 12.6207613,0 C12.1072731,0.0742717362 11.603201,0.330273127 11.2137116,0.702514419 C11.3543245,0.542894176 11.4609978,0.348366658 11.4836382,0.139011271 C10.1140852,1.06164893 9.31405641,2.92175213 8.66660932,4.72611843 C8.15822672,4.20656932 7.70763769,3.79743488 7.30341744,3.57025074 C6.16943297,2.92898954 4.81356468,2.25992609 2.68516241,1.42674108 C2.619836,2.16932605 3.03343044,3.15670324 4.22520849,3.81332188 C3.96699968,3.77687003 3.49481653,3.85820266 3.11717044,3.95356881 C3.27096581,4.80427365 3.77323844,5.50515524 5.1329987,5.84407796 C4.51158173,5.88732591 4.19043191,6.03644308 3.89937157,6.35784596 C4.18239688,6.94950441 4.87303222,7.64584055 6.11540581,7.50290166 C4.73413513,8.13070304 5.55220091,9.2933227 6.67614161,9.11993372 C4.75878424,11.2083243 1.73585792,11.0548382 0,9.30810644 C4.53221333,15.8205418 14.3841978,13.1595571 15.852389,6.88683901 C16.952392,6.89672426 17.599044,6.48503024 18,6.03114741 C17.3662376,6.14456296 16.4476503,6.02735218 15.9605689,5.81345135 Z" id="Twitter__x28_alt_x29_" fill="#222222" fill-rule="nonzero"></path>
    </g>
</svg>