<?xml version="1.0" encoding="UTF-8"?>
<svg width="13px" height="14px" viewBox="0 0 13 14" version="1.1" xmlns="http://www.w3.org/2000/svg" xmlns:xlink="http://www.w3.org/1999/xlink">
    <title>social 4</title>
    <g id="social-4" stroke="none" stroke-width="1" fill="none" fill-rule="evenodd">
        <path d="M6.5,5.23046875 L6.5,7.84570313 L10.1777,7.84570313 C9.6408,9.36776953 8.1952,10.4609375 6.5,10.4609375 C4.3498,10.4609375 2.6,8.70088477 2.6,6.53808594 C2.6,4.37528711 4.3498,2.61523438 6.5,2.61523438 C7.4321,2.61523438 8.3291,2.95129199 9.0259,3.56194922 L10.7341,1.5900625 C9.5641,0.564890625 8.0613,2.27373675e-13 6.5,2.27373675e-13 C2.9159,2.27373675e-13 0,2.93298535 0,6.53808594 C0,10.1431865 2.9159,13.0761719 6.5,13.0761719 C10.0841,13.0761719 13,10.1431865 13,6.53808594 L13,5.23046875 L6.5,5.23046875 Z" id="Shape" fill="#222222" fill-rule="nonzero"></path>
    </g>
</svg>