<?xml version="1.0" encoding="UTF-8"?>
<svg width="13px" height="13px" viewBox="0 0 13 13" version="1.1" xmlns="http://www.w3.org/2000/svg" xmlns:xlink="http://www.w3.org/1999/xlink">
    <title>social 2</title>
    <g id="social-2" stroke="none" stroke-width="1" fill="none" fill-rule="evenodd">
        <g id="instagram-logo" transform="translate(6.500000, 7.000000) scale(-1, 1) rotate(-90.000000) translate(-6.500000, -7.000000) translate(-10.500000, -10.500000)" fill="#222222" fill-rule="nonzero">
            <g id="1077093" transform="translate(11.000000, 11.000000)">
                <path d="M9.18929415,0 L3.41070546,0 C1.53001094,0 0,1.53001094 0,3.41070546 L0,9.18939027 C0,11.0699887 1.53001094,12.5999996 3.41070546,12.5999996 L9.18939027,12.5999996 C11.0699887,12.5999996 12.5999996,11.0699887 12.5999996,9.18939027 L12.5999996,3.41070546 C12.5999996,1.53001094 11.0699887,0 9.18929415,0 Z M6.2999998,9.74521607 C4.40027148,9.74521607 2.85478354,8.19972813 2.85478354,6.2999998 C2.85478354,4.40027148 4.40027148,2.85478354 6.2999998,2.85478354 C8.19972813,2.85478354 9.74521607,4.40027148 9.74521607,6.2999998 C9.74521607,8.19972813 8.19972813,9.74521607 6.2999998,9.74521607 L6.2999998,9.74521607 Z M9.82759979,3.66727741 C9.26619844,3.66727741 8.80957918,3.21065817 8.80957918,2.64925682 C8.80957918,2.08785547 9.26619844,1.63114009 9.82759979,1.63114009 C10.3890011,1.63114009 10.8457165,2.08785547 10.8457165,2.64925682 C10.8457165,3.21065817 10.3890011,3.66727741 9.82759979,3.66727741 Z" id="Shape"></path>
                <path d="M6.2999998,3.59344928 C4.80767197,3.59344928 3.59344928,4.80757584 3.59344928,6.2999998 C3.59344928,7.79232764 4.80767197,9.00655032 6.2999998,9.00655032 C7.79242376,9.00655032 9.00655032,7.79232764 9.00655032,6.2999998 C9.00655032,4.80757584 7.79242376,3.59344928 6.2999998,3.59344928 Z" id="Path"></path>
                <path d="M9.82759979,2.36990196 C9.67359895,2.36990196 9.54824495,2.49525596 9.54824495,2.64925682 C9.54824495,2.80325766 9.67359895,2.92861166 9.82759979,2.92861166 C9.98169678,2.92861166 10.1070508,2.80335378 10.1070508,2.64925682 C10.1070508,2.49515983 9.98169678,2.36990196 9.82759979,2.36990196 Z" id="Path"></path>
            </g>
        </g>
    </g>
</svg>